<svg xmlns="http://www.w3.org/2000/svg" width="42.357" height="46.3" viewBox="0 0 42.357 46.3">
  <g id="ico_01_mlynek" transform="translate(-15.861 -0.97)">
    <circle id="Ellipse_10" data-name="Ellipse 10" cx="1.22" cy="1.22" r="1.22" transform="translate(30.86 35.53)" fill="none" stroke="#50233a" stroke-width="1.5"/>
    <circle id="Ellipse_11" data-name="Ellipse 11" cx="1.22" cy="1.22" r="1.22" transform="translate(35.67 32.19)" fill="none" stroke="#50233a" stroke-width="1.5"/>
    <circle id="Ellipse_12" data-name="Ellipse 12" cx="1.22" cy="1.22" r="1.22" transform="translate(40.21 34.63)" fill="none" stroke="#50233a" stroke-width="1.5"/>
    <circle id="Ellipse_13" data-name="Ellipse 13" cx="1.22" cy="1.22" r="1.22" transform="translate(37.13 38.91)" fill="none" stroke="#50233a" stroke-width="1.5"/>
    <circle id="Ellipse_14" data-name="Ellipse 14" cx="1.22" cy="1.22" r="1.22" transform="translate(40.82 44.33)" fill="none" stroke="#50233a" stroke-width="1"/>
    <circle id="Ellipse_15" data-name="Ellipse 15" cx="1.22" cy="1.22" r="1.22" transform="translate(32.87 42.69)" fill="none" stroke="#50233a" stroke-width="1.5"/>
    <ellipse id="Ellipse_16" data-name="Ellipse 16" cx="4.68" cy="6.48" rx="4.68" ry="6.48" transform="translate(24.621 15.313) rotate(-45)" fill="none" stroke="#50233a" stroke-width="1.5"/>
    <path id="Path_212" data-name="Path 212" d="M29.75,13.54a3.83,3.83,0,0,0,2.93,3.3c2.82.84,2.94,2.68,2.94,2.68" fill="none" stroke="#50233a" stroke-linecap="round" stroke-width="1.5"/>
    <ellipse id="Ellipse_17" data-name="Ellipse 17" cx="6.48" cy="4.68" rx="6.48" ry="4.68" transform="translate(36.495 11.352) rotate(-45)" fill="none" stroke="#50233a" stroke-width="1.5"/>
    <path id="Path_213" data-name="Path 213" d="M47.43,7.32a3.83,3.83,0,0,0-3.3,2.93c-.84,2.82-2.68,2.94-2.68,2.94" fill="none" stroke="#50233a" stroke-linecap="round" stroke-width="1.5"/>
    <path id="Path_214" data-name="Path 214" d="M44.26,25.58H29.77a2.12,2.12,0,0,1-1.85-1.08l-11-19.61a2.12,2.12,0,0,1,1.85-3.17H55.31a2.12,2.12,0,0,1,1.85,3.17l-11,19.61a2.12,2.12,0,0,1-1.9,1.08Z" fill="none" stroke="#50233a" stroke-width="1.5"/>
    <path id="Path_215" data-name="Path 215" d="M31.39,25.58H42.64v3.74a2.37,2.37,0,0,1-2.37,2.37H33.76a2.37,2.37,0,0,1-2.37-2.37Z" fill="none" stroke="#50233a" stroke-width="1.5"/>
  </g>
</svg>
