<svg xmlns="http://www.w3.org/2000/svg" width="46.951" height="46.951" viewBox="0 0 46.951 46.951">
  <g id="ico_02_pid" transform="translate(-13.879 -0.85)">
    <path id="Path_216" data-name="Path 216" d="M51.18,3.21,28.8,25.59a10.91,10.91,0,1,0,7.29,7.29L58.47,10.5a5.155,5.155,0,0,0-7.29-7.29Z" fill="none" stroke="#50233a" stroke-linecap="round" stroke-linejoin="round" stroke-width="1.7"/>
    <path id="Path_217" data-name="Path 217" d="M30.64,41a7.06,7.06,0,1,1-2.95-11.75l2.2.66,24-24a1.31,1.31,0,1,1,1.85,1.85l-24,24L32.4,34A7.06,7.06,0,0,1,30.64,41Z" fill="none" stroke="#50233a" stroke-linecap="round" stroke-linejoin="round" stroke-width="1.7"/>
    <line id="Line_106" data-name="Line 106" x1="1.07" y1="1.08" transform="translate(31.84 28.79)" fill="none" stroke="#50233a" stroke-linecap="round" stroke-linejoin="round" stroke-width="1.7"/>
    <line id="Line_107" data-name="Line 107" x1="1.08" y1="1.08" transform="translate(36.63 23.99)" fill="none" stroke="#50233a" stroke-linecap="round" stroke-linejoin="round" stroke-width="1.7"/>
    <line id="Line_108" data-name="Line 108" x1="1.08" y1="1.08" transform="translate(41.43 19.19)" fill="none" stroke="#50233a" stroke-linecap="round" stroke-linejoin="round" stroke-width="1.7"/>
    <line id="Line_109" data-name="Line 109" x1="1.08" y1="1.08" transform="translate(46.23 14.39)" fill="none" stroke="#50233a" stroke-linecap="round" stroke-linejoin="round" stroke-width="1.7"/>
    <line id="Line_110" data-name="Line 110" x1="1.08" y1="1.08" transform="translate(51.03 9.59)" fill="none" stroke="#50233a" stroke-linecap="round" stroke-linejoin="round" stroke-width="1.7"/>
  </g>
</svg>
