<svg xmlns="http://www.w3.org/2000/svg" width="41.91" height="47.42" viewBox="0 0 41.91 47.42">
  <g id="ico_03_predspareni" transform="translate(-16.34 -0.37)">
    <circle id="Ellipse_18" data-name="Ellipse 18" cx="8.5" cy="8.5" r="8.5" transform="translate(28.78 25.29)" fill="none" stroke="#50233a" stroke-linecap="round" stroke-linejoin="round" stroke-width="1.7"/>
    <path id="Path_218" data-name="Path 218" d="M42,40.92a4.715,4.715,0,1,1-9.43,0" fill="none" stroke="#50233a" stroke-linecap="round" stroke-linejoin="round" stroke-width="1.7"/>
    <path id="Path_219" data-name="Path 219" d="M34.13,44.42a3.51,3.51,0,0,0-1.85,1.85c-.33,1.2-2.59.42-2.59.42s-1.81-.56-1.59-1.78a6.15,6.15,0,0,1,3.49-4.79" fill="none" stroke="#50233a" stroke-linecap="round" stroke-linejoin="round" stroke-width="1.7"/>
    <path id="Path_220" data-name="Path 220" d="M40.43,44.42a3.51,3.51,0,0,1,1.85,1.85c.33,1.2,2.59.42,2.59.42s1.81-.56,1.59-1.78A6.15,6.15,0,0,0,43,40.11" fill="none" stroke="#50233a" stroke-linecap="round" stroke-linejoin="round" stroke-width="1.7"/>
    <path id="Path_221" data-name="Path 221" d="M28.79,34.33s-3.92-.2-4.36-1.5-1.25-7.69-1.25-7.69H20.86l-.81-.89V23a1.78,1.78,0,0,1,1.84-1.06H37.38" fill="none" stroke="#50233a" stroke-linecap="round" stroke-linejoin="round" stroke-width="1.7"/>
    <path id="Path_222" data-name="Path 222" d="M45.87,34.33s3.92-.2,4.36-1.5,1.25-7.69,1.25-7.69H53.8l.81-.89V23a1.78,1.78,0,0,0-1.84-1.06H37.28" fill="none" stroke="#50233a" stroke-linecap="round" stroke-linejoin="round" stroke-width="1.7"/>
    <path id="Path_223" data-name="Path 223" d="M17.19,1.22,18.71,8.5H55.92L57.4,1.22Z" fill="none" stroke="#50233a" stroke-linecap="round" stroke-linejoin="round" stroke-width="1.7"/>
    <path id="Path_224" data-name="Path 224" d="M31.22,16.76a2.77,2.77,0,0,1-5.53,0c0-1.53,2.77-3.29,2.77-5.77C28.46,13.47,31.22,15.23,31.22,16.76Z" fill="none" stroke="#50233a" stroke-linecap="round" stroke-linejoin="round" stroke-width="1.7"/>
    <path id="Path_225" data-name="Path 225" d="M40.15,16.76a2.77,2.77,0,1,1-5.53,0c0-1.53,2.77-3.29,2.77-5.77C37.38,13.47,40.15,15.23,40.15,16.76Z" fill="none" stroke="#50233a" stroke-linecap="round" stroke-linejoin="round" stroke-width="1.7"/>
    <path id="Path_226" data-name="Path 226" d="M49,16.76a2.77,2.77,0,1,1-5.53,0c0-1.53,2.77-3.29,2.77-5.77C46.26,13.47,49,15.23,49,16.76Z" fill="none" stroke="#50233a" stroke-linecap="round" stroke-linejoin="round" stroke-width="1.7"/>
  </g>
</svg>
