<svg xmlns="http://www.w3.org/2000/svg" width="51.76" height="40.86" viewBox="0 0 51.76 40.86">
  <g id="ico_04_mnozstvi" transform="translate(-14.05 -3.5)">
    <path id="Path_227" data-name="Path 227" d="M53.36,4.35V27.76a8.53,8.53,0,0,1-8.53,8.53H28.13a8.53,8.53,0,0,1-8.53-8.53V4.35" fill="none" stroke="#50233a" stroke-linecap="round" stroke-linejoin="round" stroke-width="1.7"/>
    <path id="Path_228" data-name="Path 228" d="M48.4,24.48v3.28a3.57,3.57,0,0,1-3.57,3.57H28.13a3.57,3.57,0,0,1-3.57-3.57V24.48Z" fill="none" stroke="#50233a" stroke-linecap="round" stroke-linejoin="round" stroke-width="1.7"/>
    <line id="Line_111" data-name="Line 111" x2="23.84" transform="translate(24.56 19.07)" fill="none" stroke="#50233a" stroke-linecap="round" stroke-linejoin="round" stroke-width="1.7"/>
    <line id="Line_112" data-name="Line 112" x2="23.84" transform="translate(24.56 13.92)" fill="none" stroke="#50233a" stroke-linecap="round" stroke-linejoin="round" stroke-width="1.7"/>
    <line id="Line_113" data-name="Line 113" x2="23.84" transform="translate(24.56 8.59)" fill="none" stroke="#50233a" stroke-linecap="round" stroke-linejoin="round" stroke-width="1.7"/>
    <line id="Line_114" data-name="Line 114" x1="44.13" transform="translate(14.9 43.51)" fill="none" stroke="#50233a" stroke-linecap="round" stroke-linejoin="round" stroke-width="1.7"/>
    <circle id="Ellipse_19" data-name="Ellipse 19" cx="5.8" cy="5.8" r="5.8" transform="translate(53.36 7)" fill="none" stroke="#50233a" stroke-linecap="round" stroke-linejoin="round" stroke-width="1.7"/>
    <circle id="Ellipse_20" data-name="Ellipse 20" cx="1.21" cy="1.21" r="1.21" transform="translate(57.95 11.59)" fill="none" stroke="#50233a" stroke-linecap="round" stroke-linejoin="round" stroke-width="1.7"/>
  </g>
</svg>
